<mxfile host="65bd71144e">
    <diagram id="e91MqwquHhz2js4BfBC9" name="Page-1">
        <mxGraphModel dx="1069" dy="458" grid="1" gridSize="10" guides="1" tooltips="1" connect="1" arrows="1" fold="1" page="1" pageScale="1" pageWidth="827" pageHeight="1169" math="0" shadow="0">
            <root>
                <mxCell id="0"/>
                <mxCell id="1" parent="0"/>
                <mxCell id="2" value="" style="whiteSpace=wrap;html=1;fillColor=#21C0A5;strokeColor=#006658;fontColor=#5C5C5C;rounded=1;" parent="1" vertex="1">
                    <mxGeometry x="-10" y="10" width="270" height="220" as="geometry"/>
                </mxCell>
                <mxCell id="3" value="&lt;font style=&quot;font-size: 16px&quot; color=&quot;#ff29f8&quot;&gt;App.vue&lt;/font&gt;" style="text;html=1;strokeColor=none;fillColor=none;align=center;verticalAlign=middle;whiteSpace=wrap;fontColor=#5C5C5C;rounded=1;" parent="1" vertex="1">
                    <mxGeometry x="90" y="90" width="70" height="40" as="geometry"/>
                </mxCell>
                <mxCell id="10" style="edgeStyle=orthogonalEdgeStyle;rounded=1;sketch=0;orthogonalLoop=1;jettySize=auto;html=1;exitX=0.5;exitY=0;exitDx=0;exitDy=0;fontColor=#5C5C5C;strokeColor=#006658;fillColor=#21C0A5;" parent="1" source="4" target="2" edge="1">
                    <mxGeometry relative="1" as="geometry"/>
                </mxCell>
                <mxCell id="4" value="" style="whiteSpace=wrap;html=1;fillColor=#21C0A5;strokeColor=#006658;fontColor=#5C5C5C;rounded=1;" parent="1" vertex="1">
                    <mxGeometry x="-10" y="270" width="270" height="220" as="geometry"/>
                </mxCell>
                <mxCell id="5" value="&lt;font style=&quot;font-size: 16px&quot; color=&quot;#ff29f8&quot;&gt;Home.vue&lt;/font&gt;" style="text;html=1;strokeColor=none;fillColor=none;align=center;verticalAlign=middle;whiteSpace=wrap;fontColor=#5C5C5C;rounded=1;" parent="1" vertex="1">
                    <mxGeometry x="90" y="350" width="70" height="40" as="geometry"/>
                </mxCell>
                <mxCell id="6" value="" style="whiteSpace=wrap;html=1;fillColor=#21C0A5;strokeColor=#006658;fontColor=#5C5C5C;rounded=1;" parent="1" vertex="1">
                    <mxGeometry x="-10" y="570" width="270" height="310" as="geometry"/>
                </mxCell>
                <mxCell id="9" style="edgeStyle=orthogonalEdgeStyle;rounded=1;sketch=0;orthogonalLoop=1;jettySize=auto;html=1;fontColor=#5C5C5C;strokeColor=#006658;fillColor=#21C0A5;" parent="1" source="7" target="4" edge="1">
                    <mxGeometry relative="1" as="geometry"/>
                </mxCell>
                <mxCell id="7" value="&lt;font style=&quot;font-size: 16px&quot; color=&quot;#ff29f8&quot;&gt;Escena.vue&lt;/font&gt;" style="text;html=1;strokeColor=none;fillColor=none;align=center;verticalAlign=middle;whiteSpace=wrap;fontColor=#5C5C5C;rounded=1;" parent="1" vertex="1">
                    <mxGeometry x="75" y="580" width="100" height="50" as="geometry"/>
                </mxCell>
                <mxCell id="8" value="El nostre heroi estava surant per l'espai sideral quan a la llunyania va albirar una nau espacial" style="text;strokeColor=#BD7000;fillColor=#f0a30a;align=left;verticalAlign=middle;rounded=0;sketch=0;fontColor=#000000;whiteSpace=wrap;html=1;" parent="1" vertex="1">
                    <mxGeometry x="-10" y="630" width="520" height="40" as="geometry"/>
                </mxCell>
                <mxCell id="11" value="&lt;p id=&quot;yui_3_17_2_1_1634716770876_39&quot; style=&quot;box-sizing: border-box ; margin-top: 0px ; margin-bottom: 1rem ; color: rgb(55 , 71 , 79)&quot;&gt;&lt;font style=&quot;font-size: 12px&quot;&gt;&amp;nbsp; Sentia curiositat per l'interior de la nau i es va posar a inspeccionar-la. Va arribar a una sala amb dues portes.&lt;/font&gt;&lt;/p&gt;" style="text;strokeColor=#BD7000;fillColor=#f0a30a;align=left;verticalAlign=top;rounded=0;sketch=0;fontColor=#000000;whiteSpace=wrap;html=1;" parent="1" vertex="1">
                    <mxGeometry x="280" y="680" width="520" height="40" as="geometry"/>
                </mxCell>
                <mxCell id="12" value="&lt;p id=&quot;yui_3_17_2_1_1634716770876_46&quot; style=&quot;box-sizing: border-box ; margin-top: 0px ; margin-bottom: 1rem ; color: rgb(55 , 71 , 79) ; font-family: &amp;#34;montserrat&amp;#34; , &amp;#34;arial&amp;#34; , &amp;#34;helvetica&amp;#34;&quot;&gt;&lt;font style=&quot;font-size: 12px&quot;&gt;L'heroi va decidir travessar la porta que el portava a casa&lt;/font&gt;&lt;/p&gt;" style="text;strokeColor=#BD7000;fillColor=#f0a30a;align=left;verticalAlign=top;rounded=0;sketch=0;fontColor=#000000;whiteSpace=wrap;html=1;" parent="1" vertex="1">
                    <mxGeometry x="280" y="730" width="520" height="40" as="geometry"/>
                </mxCell>
                <mxCell id="14" value="&lt;p id=&quot;yui_3_17_2_1_1634716770876_47&quot; style=&quot;box-sizing: border-box ; margin-top: 0px ; margin-bottom: 1rem ; color: rgb(55 , 71 , 79) ; font-family: &amp;#34;montserrat&amp;#34; , &amp;#34;arial&amp;#34; , &amp;#34;helvetica&amp;#34;&quot;&gt;&lt;font style=&quot;font-size: 12px&quot;&gt;&amp;nbsp; &quot;Mentrestant, altres heroes no van tenir tanta sort en la seva elecciÃ³ ...&quot;&lt;/font&gt;&lt;/p&gt;&lt;div&gt;&lt;br&gt;&lt;/div&gt;" style="text;strokeColor=#BD7000;fillColor=#f0a30a;align=left;verticalAlign=top;rounded=0;sketch=0;fontColor=#000000;whiteSpace=wrap;html=1;" parent="1" vertex="1">
                    <mxGeometry x="280" y="780" width="520" height="40" as="geometry"/>
                </mxCell>
                <UserObject label="https://blog.nubecolectiva.com/como-leer-un-archivo-json-con-vue-js-2-6-11-tabla-de-bootstrap-4/" link="https://blog.nubecolectiva.com/como-leer-un-archivo-json-con-vue-js-2-6-11-tabla-de-bootstrap-4/" id="15">
                    <mxCell style="text;whiteSpace=wrap;html=1;" vertex="1" parent="1">
                        <mxGeometry x="470" y="960" width="550" height="30" as="geometry"/>
                    </mxCell>
                </UserObject>
            </root>
        </mxGraphModel>
    </diagram>
</mxfile>